<?xml version="1.0" standalone="no"?><!DOCTYPE svg PUBLIC "-//W3C//DTD SVG 1.1//EN" "http://www.w3.org/Graphics/SVG/1.1/DTD/svg11.dtd"><svg t="1579156170878" class="icon" viewBox="0 0 1024 1024" version="1.1" xmlns="http://www.w3.org/2000/svg" p-id="1039" xmlns:xlink="http://www.w3.org/1999/xlink" width="128" height="128"><defs><style type="text/css"></style></defs><path d="M333.54537646 413.7442926c-46.84931543 0-73.97260313-39.45205459-73.97260224-73.97260312 0-32.05479463 27.1232877-73.97260313 73.97260224-73.97260313s73.97260313 39.45205459 73.97260313 73.97260313c0 36.98630156-27.1232877 73.97260313-73.97260313 73.97260312z m-2.46575302-103.56164384c-14.7945208 0-27.1232877 12.3287669-27.12328769 27.12328769 0 14.7945208 12.3287669 27.1232877 27.12328769 27.1232877 14.7945208 0 27.1232877-12.3287669 27.1232877-27.1232877 0-14.7945208-12.3287669-27.1232877-27.1232877-27.12328769z m601.64383535 337.80821924L617.10702031 966.0730595c-9.86301387 9.86301387-24.65753467 17.26027383-39.45205458 17.26027383-14.7945208 0-29.58904073-4.93150693-39.4520546-17.26027383L79.57277422 504.97716869c-9.86301387-9.86301387-17.26027383-24.65753467-17.26027383-39.4520546V149.90867562C62.31250039 117.85388099 86.97003417 93.1963472 119.02482881 93.1963472h315.61643848c14.7945208 0 29.58904073 4.93150693 39.45205459 17.26027382l458.6301369 458.63013692c22.19178076 22.19178076 22.19178076 56.71232842 0 78.90411006zM432.17551338 142.51141565H111.62756885v320.54794541l468.4931499 468.49315079 320.54794541-320.54794542-468.49315078-468.49315078z" p-id="1040"></path></svg>