<?xml version="1.0" standalone="no"?><!DOCTYPE svg PUBLIC "-//W3C//DTD SVG 1.1//EN" "http://www.w3.org/Graphics/SVG/1.1/DTD/svg11.dtd"><svg t="1578292313789" class="icon" viewBox="0 0 1024 1024" version="1.1" xmlns="http://www.w3.org/2000/svg" p-id="4396" width="150" height="150" xmlns:xlink="http://www.w3.org/1999/xlink"><defs><style type="text/css"></style></defs><path d="M781.478 580.834c0-16.354-5.829-30.715-17.477-43.006L426.004 200.359c-11.983-11.982-28.055-22.146-48.16-30.518-20.213-8.314-38.637-12.515-55.323-12.515H125.859c-16.349 0-30.573 5.963-42.559 17.945-11.983 11.985-17.918 26.181-17.918 42.531v196.634c0 16.715 4.142 35.14 12.542 55.325 8.345 20.16 18.479 36.063 30.463 47.765l338.001 338.392c11.648 11.647 25.815 17.498 42.5 17.498 16.407 0 30.742-5.851 43.006-17.498L764 623.392c11.648-11.677 17.478-25.872 17.478-42.558z m-522.01-229.478c-11.87 11.843-26.095 17.751-42.837 17.751-16.629 0-30.965-5.908-42.779-17.751-11.816-11.816-17.751-26.067-17.751-42.752 0-16.715 5.935-30.995 17.751-42.811 11.814-11.816 26.15-17.724 42.779-17.724 16.742 0 30.967 5.908 42.837 17.724 11.757 11.816 17.696 26.096 17.696 42.811 0 16.686-5.939 30.937-17.696 42.752z" p-id="4397"></path><path d="M945.547 537.828l-338-337.469c-11.986-11.982-28.055-22.146-48.215-30.518-20.215-8.314-38.637-12.515-55.379-12.515H398.177c16.686 0 35.104 4.2 55.265 12.515 20.159 8.372 36.229 18.536 48.213 30.518l337.943 337.469c11.647 12.291 17.529 26.626 17.529 43.006 0 16.686-5.882 30.881-17.529 42.559L617.459 845.531c9.462 9.803 17.809 16.854 25.028 21.281 7.284 4.396 16.575 6.604 27.892 6.604 16.348 0 30.795-5.851 43.058-17.498l232.11-232.526c11.592-11.678 17.471-25.873 17.471-42.559 0-16.353-5.879-30.714-17.471-43.005z" p-id="4398"></path></svg>